# xmcd
#
# Track frame offsets: 
#        150
#        14963
#        29063
#        44992
#        60967
#        73141
#        85704
#        97845
#        110689
#        124302
#        134924
#        158559
#        173184
#        185203
#        198235
#        211154
#        227786
#        243846
#        255321
#        273209
#        286016
#        300173
#        313823
#        324820
#        338199
#
# Disc length: 4657 seconds
#
# Revision: 0
# Processed by: cddbd v1.5.2PL0 Copyright (c) Steve Scherf et al.
# Submitted via: ExactAudioCopy v1.0b4
#
DISCID=6a122f19
DTITLE=B.B. King - King Of The Blues - My Kind Of Blues
DYEAR=1960
DGENRE=Blues
TTITLE0=I've Got A Right To Love My Baby
TTITLE1=What Way To Go
TTITLE2=Long Nights
TTITLE3=Feel Like A Million
TTITLE4=I'll Survive
TTITLE5=Good Man Gone Bad
TTITLE6=If I Lost You
TTITLE7=You 're On The Top
TTITLE8=Partin' Time
TTITLE9=I'm King
TTITLE10=You Done Lost Your Good Thing Now
TTITLE11=Mr. Pawnbroker
TTITLE12=Understand
TTITLE13=Someday Baby
TTITLE14=Driving Wheel
TTITLE15=Walking Dr. Bill
TTITLE16=My Own Fault Aka It's My Fault
TTITLE17=Fishin' After Me Aka Catfish Blues
TTITLE18=Hold That Train
TTITLE19=Please Set The Date
TTITLE20=Whole Lotta Love
TTITLE21=Woke Up This Morning
TTITLE22=Let* do The Boogie
TTITLE23=Story From My Heart and soul
TTITLE24=Bye Bye Baby
EXTD=
EXTT0=
EXTT1=
EXTT2=
EXTT3=
EXTT4=
EXTT5=
EXTT6=
EXTT7=
EXTT8=
EXTT9=
EXTT10=
EXTT11=
EXTT12=
EXTT13=
EXTT14=
EXTT15=
EXTT16=
EXTT17=
EXTT18=
EXTT19=
EXTT20=
EXTT21=
EXTT22=
EXTT23=
EXTT24=
PLAYORDER=
